<?xml version="1.0" encoding="UTF-8" standalone="no"?> <svg id="icon" xmlns="http://www.w3.org/2000/svg" viewBox="0 0 512 512"><title>dog</title><path d="M54,375.31a49.91,49.91,0,0,0,12.36,33.14,5.86,5.86,0,1,0,8.77-7.76,38.17,38.17,0,0,1-9.42-25.38C65.67,355,81,338.52,99.8,338.52l.65,0Q98,342.73,96,347a5.85,5.85,0,0,0,2.69,7.83,5.75,5.75,0,0,0,2.56.6,5.86,5.86,0,0,0,5.27-3.29c10.48-21.46,26.89-40.52,48.78-56.66l2.35-1.75A96,96,0,0,0,185,261.31,346.21,346.21,0,0,1,211.8,217.6a5.85,5.85,0,1,0-9.49-6.85,358.6,358.6,0,0,0-27.71,45.18,83.91,83.91,0,0,1-24,28.47l-2.26,1.69a176.76,176.76,0,0,0-40.86,41.4,44.47,44.47,0,0,0-7.64-.68C74.52,326.81,54,348.57,54,375.31Z"/><path d="M88.67,390.67A5.87,5.87,0,0,0,82.33,396a157.62,157.62,0,0,0,3.37,47.77c.27,1.13,6.72,27.94,25.62,46.26a19.91,19.91,0,0,0,13.94,5.67H161c11.37,0,20.62-9.69,20.62-21.6v-7a249.57,249.57,0,0,0,28.7,1.72h.16a5.86,5.86,0,1,0,0-11.71h-.16a243.22,243.22,0,0,1-29.27-1.88,38.79,38.79,0,0,0-20.57-27.73,32,32,0,0,1-15.07-17.81,5.86,5.86,0,0,0-11.31,3,43.34,43.34,0,0,0,21,25.14,27.22,27.22,0,0,1,14.86,22.53v13.67c0,5.45-4,9.89-8.91,9.89H125.26a8.3,8.3,0,0,1-5.79-2.36c-16.38-15.89-22.31-40.3-22.35-40.46A146.1,146.1,0,0,1,94,397,5.86,5.86,0,0,0,88.67,390.67Z"/><path d="M190.43,278.89a5.87,5.87,0,0,0-6.9,4.58,190.92,190.92,0,0,0-2.89,19.31c0,.16,0,.38,0,.55,0,.34-.2,8.34-7.31,11.19a5.85,5.85,0,1,0,4.35,10.87c13.5-5.4,14.58-19.15,14.66-21.69A176.81,176.81,0,0,1,195,285.8,5.87,5.87,0,0,0,190.43,278.89Z"/><path d="M348.12,495.69h33.07a22.12,22.12,0,0,0,22.09-22.09V430.11c48.65-99.62,22.23-167.41-8.59-206.79a5.85,5.85,0,1,0-9.22,7.21c28.88,36.9,53.48,100.79,6.7,195.63a6,6,0,0,0-.6,2.59V473.6A10.4,10.4,0,0,1,381.19,484H348.12a10.4,10.4,0,0,1-10.38-10.38V441.83a37.79,37.79,0,0,0,6.07-2.52,5.86,5.86,0,0,0-5.7-10.23,43.36,43.36,0,0,1-8.57,3c-.18.05-.34.13-.52.19-4.48.64-16.55,2-27.7-.23a42.43,42.43,0,0,1-8.41-2.93,5.86,5.86,0,0,0-5.7,10.23,40.62,40.62,0,0,0,7,2.81V473.6A10.4,10.4,0,0,1,283.78,484H249.42A10.39,10.39,0,0,1,239,473.6V434.73a5.86,5.86,0,0,0-2.36-4.69c-.28-.21-27.85-21.28-39.73-65.88a5.86,5.86,0,0,0-11.32,3c11,41.41,34.19,63.92,41.7,70.35V473.6a22.12,22.12,0,0,0,22.09,22.09h34.36a22.12,22.12,0,0,0,22.09-22.09V444.49a104.87,104.87,0,0,0,20.16-.1V473.6A22.12,22.12,0,0,0,348.12,495.69Z"/><path d="M424.25,47.86c-22.47-11.33-46.49-11.63-59.55-10.68-27.19-20.91-57.46-20.87-59-20.87-1.76,0-32.2,0-59.38,21a5.71,5.71,0,0,0-1.18-.2C230.2,36.15,208,37.26,187,47.86a60.51,60.51,0,0,0-32.61,48.65,287.83,287.83,0,0,0-.17,50.3,28.71,28.71,0,0,0,37.37,24.54A5.85,5.85,0,1,0,188,160.2a17,17,0,0,1-22.13-14.45A282.16,282.16,0,0,1,166,97.51a48.71,48.71,0,0,1,26.21-39.19c14.36-7.24,29.48-9.48,41.83-9.75A102.57,102.57,0,0,0,217.7,73a5.45,5.45,0,0,0-.3.76c-.44,1.37-2,4-3.16,4a5.86,5.86,0,0,0,0,11.71c8,0,12.57-7.15,14.16-11.7C252.61,28.16,303.35,28,305.68,28c.46,0,47.17-.09,72.79,41.85l.2.31c1.08,1.53,6.85,9.23,14.65,10.23a5.85,5.85,0,1,0,1.5-11.61c-1.93-.25-5-3.16-6.48-5.23a99.52,99.52,0,0,0-11.25-15C389,48.86,404.42,51,419,58.32a48.72,48.72,0,0,1,26.22,39.19,282.16,282.16,0,0,1,.17,48.24,17,17,0,0,1-21.65,14.6,5.86,5.86,0,1,0-3.25,11.25A28.72,28.72,0,0,0,457,146.81a286.86,286.86,0,0,0-.17-50.3A60.5,60.5,0,0,0,424.25,47.86Z"/><path d="M261.78,191.24A21.69,21.69,0,0,0,276.3,209v23.27a32.43,32.43,0,0,0,64.86,0V209a21.69,21.69,0,0,0,14.52-17.74,5.89,5.89,0,0,0-5.35-6.36,5.81,5.81,0,0,0-6.31,5.31c-.14,1.17-1.25,7.06-9.72,8.54l-.09,0h-.06c-1.35.26-12.13,2-18-6.49a14.59,14.59,0,0,0,4-3.54l7.56-9.69a14.49,14.49,0,0,0-11.42-23.39H301.17A14.49,14.49,0,0,0,289.75,179l7.56,9.69a14.59,14.59,0,0,0,4,3.54c-5.9,8.52-16.68,6.75-18,6.5h-.08l-.1,0c-8.43-1.47-9.57-7.32-9.72-8.52a5.85,5.85,0,0,0-11.66,1Zm36.9-22.33a2.7,2.7,0,0,1,2.49-1.56h15.12a2.77,2.77,0,0,1,2.18,4.48l-7.56,9.69a2.77,2.77,0,0,1-4.36,0L299,171.83A2.72,2.72,0,0,1,298.68,168.91Zm4.2,37.65v23.1a5.86,5.86,0,0,0,11.71,0V206.57a31.07,31.07,0,0,0,14.86,4.2v21.48a20.72,20.72,0,1,1-41.43,0V210.77A31,31,0,0,0,302.88,206.56Z"/><path d="M276.16,129.07a5.86,5.86,0,1,0-4.14-1.72A5.86,5.86,0,0,0,276.16,129.07Z"/><path d="M336.43,126.46a7.06,7.06,0,0,0,.73.89,5.87,5.87,0,0,0,4.15,1.72,6.3,6.3,0,0,0,1.14-.12,5.49,5.49,0,0,0,1.09-.34,6,6,0,0,0,1-.52,5.3,5.3,0,0,0,.88-.74,4.74,4.74,0,0,0,.73-.89,5.56,5.56,0,0,0,.88-2.11,5.52,5.52,0,0,0,.12-1.14,6,6,0,0,0-1.71-4.14,6.38,6.38,0,0,0-.9-.73,6.06,6.06,0,0,0-1-.53,5.49,5.49,0,0,0-1.09-.34,5.89,5.89,0,0,0-5.29,1.6,7.86,7.86,0,0,0-.73.89,5.78,5.78,0,0,0-.54,1,5.15,5.15,0,0,0-.32,1.1,5.48,5.48,0,0,0,0,2.28,5.15,5.15,0,0,0,.32,1.1A5.78,5.78,0,0,0,336.43,126.46Z"/><path d="M187.23,328.69c0,.1-3,10.56-11.35,16a5.86,5.86,0,1,0,6.39,9.82c12.25-8,16.13-22.24,16.29-22.84a5.86,5.86,0,0,0-11.33-3Z"/><path d="M250.73,389a43.49,43.49,0,0,1,3.49,6.83,5.86,5.86,0,0,0,5.48,3.79,6,6,0,0,0,2.07-.37,5.86,5.86,0,0,0,3.41-7.55,54.65,54.65,0,0,0-4.43-8.77c-1-1.63-2.09-3.14-3.12-4.54-7.51-10.15-8-22.62-8-22.86a5.85,5.85,0,0,0-5.85-5.7h-.14a5.85,5.85,0,0,0-5.72,6c0,.66.5,16.27,10.3,29.53C249.12,386.57,250,387.77,250.73,389Z"/><path d="M300.77,407.45a5.86,5.86,0,0,0,7.5-3.51,5.86,5.86,0,0,0-3.52-7.5,36.88,36.88,0,0,1-21.93-21.25A5.86,5.86,0,1,0,272,379.65,49,49,0,0,0,300.77,407.45Z"/><path d="M364.23,399.6a5.84,5.84,0,0,0,5.48-3.79,44.16,44.16,0,0,1,3.48-6.82c.74-1.22,1.62-2.42,2.53-3.66,9.8-13.26,10.28-28.87,10.3-29.53a5.85,5.85,0,0,0-5.71-6h-.15a5.86,5.86,0,0,0-5.85,5.71c0,.13-.38,12.54-8,22.85-1,1.4-2.13,2.91-3.12,4.55a57,57,0,0,0-4.43,8.76,5.86,5.86,0,0,0,3.42,7.55A5.94,5.94,0,0,0,364.23,399.6Z"/><path d="M326.65,402.64a5.87,5.87,0,0,0,2.87-.76,48.93,48.93,0,0,0,21.19-24.34,5.85,5.85,0,1,0-10.83-4.45,37.44,37.44,0,0,1-16.11,18.59,5.86,5.86,0,0,0,2.88,11Z"/><path d="M357.07,215.27a5.86,5.86,0,0,0,6.48,9.76c25.19-16.72,35.82-43.05,40.29-62.18,8.1-34.13-1.65-65.74-2.07-67.07a5.85,5.85,0,0,0-11.17,3.51c.1.3,9.18,30,1.84,60.87C388.45,177.25,379.07,200.68,357.07,215.27Z"/><path d="M214.05,102.59a5.86,5.86,0,0,0-7.06,4.33c-.34,1.43-8.27,35.48,4.15,68.92,8.65,24.84,24.24,43.57,45.07,54.17a5.75,5.75,0,0,0,2.65.64,5.86,5.86,0,0,0,2.66-11.08c-18.34-9.33-31.58-25.34-39.37-47.7-11.18-30.11-3.84-61.91-3.77-62.22A5.86,5.86,0,0,0,214.05,102.59Z"/></svg>